<mxfile host="app.diagrams.net" modified="2024-07-13T19:47:57.144Z" agent="Mozilla/5.0 (Windows NT 10.0; Win64; x64) AppleWebKit/537.36 (KHTML, like Gecko) Chrome/125.0.0.0 Safari/537.36 OPR/111.0.0.0" version="24.5.4" etag="LQ7unLJmyJMt74eLsIsi" type="github">
  <diagram name="Страница — 1" id="e9AT3g3fpQzjX8xTxy5N">
    <mxGraphModel>
      <root>
        <mxCell id="0" />
        <mxCell id="1" parent="0" />
      </root>
    </mxGraphModel>
  </diagram>
</mxfile>
